<?xml version="1.0" encoding="UTF-8"?>
<svg width="16px" height="14px" viewBox="0 0 16 14" version="1.1" xmlns="http://www.w3.org/2000/svg" xmlns:xlink="http://www.w3.org/1999/xlink">
    <!-- Generator: Sketch 51.3 (57544) - http://www.bohemiancoding.com/sketch -->
    <title>Icons/Depth</title>
    <desc>Created with Sketch.</desc>
    <defs></defs>
    <g id="Symbols" stroke="none" stroke-width="1" fill="none" fill-rule="evenodd">
        <g id="Icons/Order/2" transform="translate(-4.000000, -5.000000)" fill="#F55656">
            <g id="Icons/Depth" transform="translate(4.000000, 5.000000)">
                <path d="M1,0 L15,0 C15.5522847,-1.01453063e-16 16,0.44771525 16,1 L16,2 L0,2 L0,1 C-6.76353751e-17,0.44771525 0.44771525,1.01453063e-16 1,0 Z M0,4 L16,4 L16,6 L0,6 L0,4 Z M0,8 L16,8 L16,10 L0,10 L0,8 Z M0,12 L16,12 L16,13 C16,13.5522847 15.5522847,14 15,14 L1,14 C0.44771525,14 6.76353751e-17,13.5522847 0,13 L0,12 Z" id="Combined-Shape"></path>
            </g>
        </g>
    </g>
</svg>