<?xml version="1.0" standalone="no"?>
<!DOCTYPE svg PUBLIC "-//W3C//DTD SVG 20010904//EN"
 "http://www.w3.org/TR/2001/REC-SVG-20010904/DTD/svg10.dtd">
<svg version="1.0" xmlns="http://www.w3.org/2000/svg"
 width="1251.000000pt" height="1251.000000pt" viewBox="0 0 1251.000000 1251.000000"
 preserveAspectRatio="xMidYMid meet">
<metadata>
Created by potrace 1.11, written by Peter Selinger 2001-2013
</metadata>
<g transform="translate(0.000000,1251.000000) scale(0.100000,-0.100000)"
fill="#000000" stroke="none">
<path d="M1089 10890 c-2 -80 -2 -84 5 -215 3 -66 8 -131 10 -145 3 -14 7 -50
10 -80 7 -59 11 -88 26 -165 5 -27 11 -61 14 -75 23 -138 99 -360 179 -519
233 -471 648 -800 1252 -995 95 -31 297 -83 390 -101 149 -28 284 -49 405 -60
30 -3 71 -7 90 -10 207 -27 1014 -27 1265 0 22 2 76 7 120 10 44 4 91 8 105
10 14 2 60 6 103 10 43 3 86 8 95 9 9 2 49 7 87 11 39 4 78 9 87 10 9 2 48 7
85 10 37 4 70 9 73 10 3 2 33 6 65 10 33 3 67 8 75 10 8 2 35 7 60 10 25 3 83
12 130 20 47 8 103 17 125 20 47 7 51 8 230 40 161 30 507 99 740 149 136 29
156 32 135 16 -14 -10 -35 -26 -47 -37 -11 -10 -31 -25 -43 -33 -12 -8 -28
-20 -34 -25 -6 -6 -49 -40 -96 -75 -47 -36 -92 -70 -100 -77 -17 -13 -329
-255 -376 -290 -16 -12 -202 -156 -414 -319 -212 -164 -599 -462 -860 -664
-261 -201 -527 -406 -590 -455 -63 -49 -153 -118 -200 -154 -47 -36 -126 -97
-176 -136 -50 -38 -106 -81 -124 -95 -18 -14 -114 -88 -214 -165 -99 -77 -228
-176 -286 -220 -58 -44 -112 -86 -120 -92 -8 -7 -62 -49 -120 -94 -58 -45
-119 -92 -135 -105 -17 -13 -44 -34 -61 -46 -32 -23 -158 -120 -534 -411 -113
-88 -218 -169 -233 -181 -16 -11 -52 -39 -80 -62 -29 -22 -160 -123 -292 -224
-292 -222 -325 -250 -445 -370 -148 -148 -255 -303 -306 -445 -27 -74 -70
-240 -79 -300 -3 -23 -7 -51 -10 -64 -23 -118 -22 -435 1 -513 3 -9 6 -25 8
-35 35 -178 168 -504 279 -683 105 -167 276 -366 410 -476 220 -179 554 -338
842 -400 53 -12 175 -34 215 -39 25 -3 56 -8 70 -10 14 -2 58 -6 98 -9 39 -3
105 -9 145 -13 79 -7 7994 -12 8016 -5 10 4 12 32 7 146 -9 178 -14 257 -20
304 -3 20 -8 60 -12 87 -3 28 -8 59 -10 70 -2 11 -9 47 -15 80 -62 347 -209
667 -426 926 -66 79 -192 201 -247 238 -11 9 -30 23 -40 33 -21 19 -65 49
-136 94 -178 112 -408 215 -625 281 -168 50 -404 104 -525 118 -30 4 -57 8
-60 10 -3 2 -34 6 -70 10 -36 3 -76 8 -90 10 -25 4 -91 10 -210 20 -180 15
-651 21 -835 10 -33 -1 -118 -6 -190 -10 -71 -3 -141 -8 -155 -10 -14 -2 -68
-7 -120 -10 -52 -4 -102 -8 -110 -10 -8 -1 -49 -6 -90 -10 -41 -3 -86 -8 -100
-10 -14 -2 -54 -7 -90 -10 -36 -4 -67 -8 -70 -10 -3 -2 -39 -6 -80 -10 -41 -4
-77 -8 -80 -10 -3 -2 -34 -6 -70 -10 -36 -3 -72 -8 -80 -10 -8 -2 -35 -7 -60
-10 -25 -3 -52 -8 -60 -10 -14 -4 -61 -11 -127 -19 -15 -2 -93 -16 -173 -30
-80 -14 -158 -28 -175 -31 -73 -13 -534 -106 -570 -114 -68 -17 -222 -51 -229
-51 -9 0 42 43 144 121 47 36 114 88 150 115 36 28 157 121 270 208 113 86
212 162 220 169 8 7 191 147 405 312 215 165 395 304 402 310 7 5 31 24 55 42
40 30 253 194 323 248 37 29 402 309 584 448 73 56 138 107 145 113 6 6 40 32
76 58 36 27 67 51 70 55 3 3 41 33 85 66 44 32 85 63 90 67 6 5 69 54 140 109
72 54 173 132 225 173 52 40 313 241 580 446 267 205 528 406 580 446 52 40
151 117 220 169 69 53 139 107 155 119 139 109 250 194 346 266 309 234 373
296 482 462 128 196 188 362 223 623 2 17 6 119 8 228 4 234 -5 288 -89 544
-252 756 -747 1194 -1530 1352 -55 11 -124 23 -154 26 -30 4 -61 8 -70 10 -9
1 -54 6 -101 10 -47 3 -98 9 -115 12 -16 3 -1833 7 -4037 7 l-4008 1 -1 -55z"/>
</g>
</svg>
